<?xml version="1.0" encoding="UTF-8" standalone="no"?>
<svg
   version="1.1"
   viewBox="-5.0 -10.0 110.0 135.0"
   id="svg144"
   sodipodi:docname="about.svg"
   inkscape:version="1.2.2 (b0a84865, 2022-12-01)"
   xmlns:inkscape="http://www.inkscape.org/namespaces/inkscape"
   xmlns:sodipodi="http://sodipodi.sourceforge.net/DTD/sodipodi-0.dtd"
   xmlns="http://www.w3.org/2000/svg"
   xmlns:svg="http://www.w3.org/2000/svg">
  <defs
     id="defs148" />
  <sodipodi:namedview
     id="namedview146"
     pagecolor="#ffffff"
     bordercolor="#000000"
     borderopacity="0.25"
     inkscape:showpageshadow="2"
     inkscape:pageopacity="0.0"
     inkscape:pagecheckerboard="0"
     inkscape:deskcolor="#d1d1d1"
     showgrid="false"
     inkscape:zoom="1.7481481"
     inkscape:cx="54.915254"
     inkscape:cy="67.5"
     inkscape:window-width="1309"
     inkscape:window-height="456"
     inkscape:window-x="0"
     inkscape:window-y="25"
     inkscape:window-maximized="0"
     inkscape:current-layer="svg144" />
  <g
     id="g138">
    <path
       d="m50 25c13.785 0 25 11.215 25 25 0 6.6758-2.6016 12.957-7.3242 17.676-4.7188 4.7227-11 7.3242-17.676 7.3242-13.785 0-25-11.215-25-25 0-6.6758 2.6016-12.957 7.3242-17.676 4.7188-4.7227 11-7.3242 17.676-7.3242m0-8.332c-18.41 0-33.332 14.922-33.332 33.332s14.922 33.332 33.332 33.332 33.332-14.922 33.332-33.332-14.922-33.332-33.332-33.332z"
       id="path132" />
    <path
       d="m50 45.832c-2.3008 0-4.168 1.8672-4.168 4.168v12.5c0 2.3008 1.8672 4.168 4.168 4.168s4.168-1.8672 4.168-4.168v-12.5c0-2.3008-1.8672-4.168-4.168-4.168z"
       id="path134" />
    <path
       d="m50 33.332c-2.3008 0-4.168 1.8672-4.168 4.168s1.8672 4.168 4.168 4.168 4.168-1.8672 4.168-4.168-1.8672-4.168-4.168-4.168z"
       id="path136" />
  </g>
</svg>
