<?xml version="1.0" encoding="UTF-8" standalone="no"?>
<svg
   data-name="Layer 1"
   viewBox="0 0 100 125"
   x="0px"
   y="0px"
   version="1.1"
   id="svg142"
   sodipodi:docname="noun-home-4625156.svg"
   inkscape:version="1.2.2 (b0a84865, 2022-12-01)"
   xmlns:inkscape="http://www.inkscape.org/namespaces/inkscape"
   xmlns:sodipodi="http://sodipodi.sourceforge.net/DTD/sodipodi-0.dtd"
   xmlns="http://www.w3.org/2000/svg"
   xmlns:svg="http://www.w3.org/2000/svg">
  <defs
     id="defs146" />
  <sodipodi:namedview
     id="namedview144"
     pagecolor="#ffffff"
     bordercolor="#000000"
     borderopacity="0.25"
     inkscape:showpageshadow="2"
     inkscape:pageopacity="0.0"
     inkscape:pagecheckerboard="0"
     inkscape:deskcolor="#d1d1d1"
     showgrid="false"
     inkscape:zoom="1.888"
     inkscape:cx="49.788136"
     inkscape:cy="62.5"
     inkscape:window-width="1309"
     inkscape:window-height="456"
     inkscape:window-x="0"
     inkscape:window-y="25"
     inkscape:window-maximized="0"
     inkscape:current-layer="svg142" />
  <title
     id="title132">Artboard 39</title>
  <path
     d="M30,82H70A12,12,0,0,0,82,70V43.68a13,13,0,0,0-5.79-10.82l-19-12.67a13,13,0,0,0-14.42,0l-19,12.67A13,13,0,0,0,18,43.68V70A12,12,0,0,0,30,82ZM26,43.68a5,5,0,0,1,2.23-4.16l19-12.67a5,5,0,0,1,5.55,0l19,12.67A5,5,0,0,1,74,43.68V70a4,4,0,0,1-4,4H30a4,4,0,0,1-4-4Z"
     id="path134" />
  <path
     d="M47.46,64.15a4.14,4.14,0,0,0,5.07,0C56.06,61.43,62,56.22,62,52a6,6,0,0,0-11.55-2.29.48.48,0,0,1-.9,0A6,6,0,0,0,38,52C38,56.22,43.94,61.43,47.46,64.15Z"
     id="path136" />
</svg>
