<?xml version="1.0" encoding="UTF-8" standalone="no"?>
<svg
   version="1.1"
   viewBox="-5.0 -10.0 110.0 135.0"
   id="svg2081"
   sodipodi:docname="services.svg"
   inkscape:version="1.2.2 (b0a84865, 2022-12-01)"
   xmlns:inkscape="http://www.inkscape.org/namespaces/inkscape"
   xmlns:sodipodi="http://sodipodi.sourceforge.net/DTD/sodipodi-0.dtd"
   xmlns="http://www.w3.org/2000/svg"
   xmlns:svg="http://www.w3.org/2000/svg">
  <defs
     id="defs2085" />
  <sodipodi:namedview
     id="namedview2083"
     pagecolor="#ffffff"
     bordercolor="#000000"
     borderopacity="0.25"
     inkscape:showpageshadow="2"
     inkscape:pageopacity="0.0"
     inkscape:pagecheckerboard="0"
     inkscape:deskcolor="#d1d1d1"
     showgrid="false"
     inkscape:zoom="1.7481481"
     inkscape:cx="54.915254"
     inkscape:cy="67.5"
     inkscape:window-width="1309"
     inkscape:window-height="456"
     inkscape:window-x="0"
     inkscape:window-y="25"
     inkscape:window-maximized="0"
     inkscape:current-layer="svg2081" />
  <path
     d="m77.734 59.594v7.8242c0 1.332-0.70703 2.582-1.9141 3.3711l-22.848 15.148c-1.7461 1.1641-4.2031 1.1641-5.9492 0l-22.848-15.148c-1.207-0.78906-1.9141-2.0391-1.9141-3.3711v-7.8633l10.613 7.0312c1.2891 0.83203 2.8281 1.332 4.4531 1.332 1.832 0 3.5781-0.53906 4.9102-1.6211l7.8242-5.7422 7.8633 5.7852c1.2891 1 3.0391 1.582 4.8672 1.582 1.6211 0 3.2031-0.45703 4.4531-1.332l10.57-6.9922zm-18.309-45.32-9.4062 6.9062 27.758 18.395 8.0742-5.8242c2.2891-1.7891 2.1641-4.9102-0.29297-6.5352l-19.852-13.148c-1.8711-1.25-4.4961-1.1641-6.2852 0.20703zm-25.137-0.20703-19.852 13.148c-2.457 1.6211-2.582 4.7422-0.29297 6.5352l8.0742 5.8242 27.758-18.395-9.4062-6.9062c-1.7461-1.375-4.3711-1.457-6.2852-0.20703zm51.52 31.211-8.1133-5.8672-25.719 17.062-1 0.625-1.0391 0.66406 0.91406 0.66406 0.91406 0.70703 7.5742 5.5352c0.91406 0.70703 2.1211 1.082 3.2891 1.082 1.0391 0 2.1211-0.29297 2.9961-0.83203l19.852-13.148c2.4141-1.6211 2.5391-4.7422 0.29297-6.4922zm-36.871 11.859-1-0.625-25.758-17.062-8.0312 5.8672c-2.2461 1.7461-2.1211 4.8672 0.29297 6.4922l19.852 13.148c0.875 0.53906 1.957 0.83203 2.9961 0.83203 1.1641 0 2.3711-0.33203 3.2891-1.082l7.5742-5.5352 0.91406-0.70703 0.91406-0.66406-1.0391-0.66406z"
     id="path2075" />
</svg>
